{"title":"The Knot 2012 DVDRip x264 AC3-OFFLiNE","uid":8252685,"size":1546381909,"categoryP":"video","categoryS":"movies","magnet":"?xt=urn:btih:26720a9e70c0f148669c23301e99cb76e50f28e2&amp;dn=The+Knot+2012+DVDRip+x264+AC3-OFFLiNE&amp;tr=udp%3A%2F%2Ftracker.openbittorrent.com%3A80&amp;tr=udp%3A%2F%2Fopen.demonii.com%3A1337&amp;tr=udp%3A%2F%2Ftracker.coppersurfer.tk%3A6969&amp;tr=udp%3A%2F%2Fexodus.desync.com%3A6969","seeders":1,"leechers":0,"uploader":"sceneline","files":5,"time":1363193774,"description":"- &lt;a href=&quot;\nhttp://www.Speed.Cd&quot; rel=&quot;nofollow&quot; target=&quot;_NEW&quot;&gt;\nhttp://www.Speed.Cd&lt;/a&gt;\n &lt;a href=&quot;\nhttp://www.Speed.Cd&quot; rel=&quot;nofollow&quot; target=&quot;_NEW&quot;&gt;\nhttp://www.Speed.Cd&lt;/a&gt;       the fast  and The Hottest Private Tracker on the net\n\nPlease Seed back to make the speed Faster!!\n ............ NFO .............\n-[IMG]http://i.imgur.com/cDvSSI1.jpg[/IMG]\n\nSource: DVDR L-S - Thanks\n &lt;a href=&quot;\nhttp://www.imdb.com/title/tt1877797/&quot; rel=&quot;nofollow&quot; target=&quot;_NEW&quot;&gt;\nhttp://www.imdb.com/title/tt1877797/&lt;/a&gt;\n\nA couple endures a series of mishaps right before their wedding day.\n\nGeneral\nComplete name                            : The Knot 2012 DVDRip x264 AC3-OFFLiNE.mkv\nFormat                                   : Matroska\nFormat version                           : Version 4 / Version 2\nFile size                                : 1.42 GiB\nDuration                                 : 1h 28mn\nOverall bit rate mode                    : Variable\nOverall bit rate                         : 2 307 Kbps\nEncoded date                             : UTC 2013-03-11 22:18:36\nWriting application                      : mkvmerge v6.1.0 ('Old Devil') built on Mar  2 2013 14:32:37\nWriting library                          : libebml v1.3.0 + libmatroska v1.4.0\n\nVideo\nID                                       : 1\nFormat                                   : AVC\nFormat/Info                              : Advanced Video Codec\nFormat profile                           : &lt;a class=&quot;__cf_email__&quot; href=&quot;/cdn-cgi/l/email-protection&quot; data-cfemail=&quot;e1a9888689a1add5cfd0&quot;&gt;[email&amp;#160;protected]&lt;/a&gt;&lt;script cf-hash='f9e31' type=&quot;text/javascript&quot;&gt;\n/* &lt;![CDATA[ */!function(){try{var t=&quot;currentScript&quot;in document?document.currentScript:function(){for(var t=document.getElementsByTagName(&quot;script&quot;),e=t.length;e--;)if(t[e].getAttribute(&quot;cf-hash&quot;))return t[e]}();if(t&amp;&amp;t.previousSibling){var e,r,n,i,c=t.previousSibling,a=c.getAttribute(&quot;data-cfemail&quot;);if(a){for(e=&quot;&quot;,r=parseInt(a.substr(0,2),16),n=2;a.length-n;n+=2)i=parseInt(a.substr(n,2),16)^r,e+=String.fromCharCode(i);e=document.createTextNode(e),c.parentNode.replaceChild(e,c)}}}catch(u){}}();/* ]]&gt; */&lt;/script&gt;\nFormat settings, CABAC                   : Yes\nFormat settings, ReFrames                : 3 frames\nCodec ID                                 : V_MPEG4/ISO/AVC\nDuration                                 : 1h 28mn\nBit rate mode                            : Variable\nBit rate                                 : 1 857 Kbps\nMaximum bit rate                         : 40.0 Mbps\nWidth                                    : 720 pixels\nHeight                                   : 304 pixels\nDisplay aspect ratio                     : 2.35:1\nFrame rate mode                          : Constant\nFrame rate                               : 25.000 fps\nColor space                              : YUV\nChroma subsampling                       : 4:2:0\nBit depth                                : 8 bits\nScan type                                : Progressive\nBits/(Pixel*Frame)                       : 0.339\nStream size                              : 1.12 GiB (79%)\nWriting library                          : x264 core 130 r2273 b3065e6\n\nAudio\nID                                       : 2\nFormat                                   : AC-3\nFormat/Info                              : Audio Coding 3\nMode extension                           : CM (complete main)\nFormat settings, Endianness              : Big\nCodec ID                                 : A_AC3\nDuration                                 : 1h 28mn\nBit rate mode                            : Constant\nBit rate                                 : 448 Kbps\nChannel(s)                               : 6 channels\nChannel positions                        : Front: L C R, Side: L R, LFE\nSampling rate                            : 48.0 KHz\nBit depth                                : 16 bits\nCompression mode                         : Lossy\nStream size                              : 283 MiB (19%)\nLanguage                                 : English\nDefault                                  : Yes\nForced                                   : No\n\n[IMG]http://i.imgur.com/jU0JAA1.png[/IMG]\n[IMG]http://i.imgur.com/bPL5caW.png[/IMG]\n[IMG]http://i.imgur.com/xWWzKgt.png[/IMG]\n[IMG]http://i.imgur.com/2rvyvdI.png[/IMG]\n[IMG]http://i.imgur.com/enghiTg.png[/IMG]\n\nGreets: To Our Friends","torrent":{"xt":"urn:btih:26720a9e70c0f148669c23301e99cb76e50f28e2","amp;dn":"The+Knot+2012+DVDRip+x264+AC3-OFFLiNE","amp;tr":["udp%3A%2F%2Ftracker.openbittorrent.com%3A80","udp%3A%2F%2Fopen.demonii.com%3A1337","udp%3A%2F%2Ftracker.coppersurfer.tk%3A6969","udp%3A%2F%2Fexodus.desync.com%3A6969"],"infoHash":"26720a9e70c0f148669c23301e99cb76e50f28e2","infoHashBuffer":{"type":"Buffer","data":[38,114,10,158,112,192,241,72,102,156,35,48,30,153,203,118,229,15,40,226]},"announce":[],"urlList":[]}}